<svg xmlns="http://www.w3.org/2000/svg" viewBox="0 0 748.82 864.67"><defs><style>.cls-1{fill:#007eff;}.cls-2{fill:#fff;}</style></defs><g id="Layer_2" data-name="Layer 2"><g id="Layer_1-2" data-name="Layer 1"><polygon class="cls-1" points="748.82 648.5 748.82 216.17 374.41 0 0 216.17 0 648.5 374.41 864.67 748.82 648.5"/><polygon class="cls-2" points="425.76 435.71 425.76 248.13 505.91 201.86 505.91 388.39 425.76 435.71"/><polygon class="cls-2" points="505.91 660.45 344.92 566.49 344.92 473.53 506.14 566.61 505.91 660.45"/><polygon class="cls-2" points="345.55 387.8 183.2 481.1 102.93 434.17 264.4 341.29 345.55 387.8"/><path class="cls-2" d="M404.89,391.28,277.71,317.85a70.55,70.55,0,0,1-35.27-61.09V204.93L404,298.2Z"/><path class="cls-2" d="M645.89,430.6,484,523l-80.5-46.48,125.41-72.41a71.45,71.45,0,0,1,71.57.09Z"/><path class="cls-2" d="M323.3,429.51,323,575.42a71.31,71.31,0,0,1-36,61.81l-44.86,25.58.3-186.27Z"/></g></g></svg>